<svg width="20" height="18" viewBox="0 0 22 20" fill="none" xmlns="http://www.w3.org/2000/svg">
<path d="M22 9.99881C22 10.3776 21.8609 10.7409 21.6134 11.0087C21.3659 11.2766 21.0301 11.427 20.6801 11.427H4.51083L10.1778 17.5576C10.4257 17.826 10.565 18.1899 10.565 18.5693C10.565 18.9487 10.4257 19.3127 10.1778 19.581C9.92979 19.8493 9.59348 20 9.2428 20C8.89213 20 8.55581 19.8493 8.30785 19.581L0.388223 11.0117C0.265169 10.879 0.167533 10.7213 0.100913 10.5477C0.0342931 10.3741 0 10.188 0 10C0 9.81203 0.0342931 9.6259 0.100913 9.4523C0.167533 9.2787 0.265169 9.12103 0.388223 8.98835L8.30785 0.419041C8.43063 0.286188 8.57639 0.180804 8.73681 0.108905C8.89723 0.0370057 9.06917 0 9.2428 0C9.41644 0 9.58838 0.0370057 9.7488 0.108905C9.90922 0.180804 10.055 0.286188 10.1778 0.419041C10.3005 0.551893 10.3979 0.709612 10.4644 0.883191C10.5308 1.05677 10.565 1.24281 10.565 1.43069C10.565 1.61858 10.5308 1.80462 10.4644 1.9782C10.3979 2.15178 10.3005 2.3095 10.1778 2.44235L4.51083 8.57059H20.6801C21.0301 8.57059 21.3659 8.72106 21.6134 8.98891C21.8609 9.25675 22 9.62002 22 9.99881Z" fill="white"/>
</svg>
