<svg width="24" height="12" viewBox="0 0 24 12" fill="none" xmlns="http://www.w3.org/2000/svg">
<path d="M23.9057 7.88399C23.9993 8.04654 24.0244 8.2396 23.9757 8.42072C23.9269 8.60184 23.8082 8.75617 23.6457 8.84976C23.4831 8.94336 23.2901 8.96855 23.109 8.91979C22.9278 8.87104 22.7735 8.75234 22.6799 8.58979L20.3273 4.46322C18.936 5.43852 17.3827 6.15903 15.7396 6.5912L16.4654 10.9436C16.4807 11.0351 16.4778 11.1287 16.457 11.219C16.4361 11.3094 16.3977 11.3947 16.3438 11.4702C16.29 11.5457 16.2218 11.6098 16.1431 11.659C16.0645 11.7081 15.9769 11.7412 15.8854 11.7565C15.8465 11.7625 15.8072 11.7656 15.7678 11.7659C15.6011 11.7657 15.4399 11.7066 15.3126 11.5989C15.1854 11.4913 15.1004 11.3421 15.0726 11.1777L14.3527 6.87705C12.7938 7.12197 11.2062 7.12197 9.64734 6.87705L8.93213 11.1777C8.90431 11.3423 8.8191 11.4916 8.69161 11.5993C8.56413 11.707 8.40261 11.766 8.23574 11.7659C8.19635 11.7656 8.15703 11.7625 8.1181 11.7565C8.02663 11.7411 7.93908 11.7078 7.86047 11.6586C7.78186 11.6093 7.71374 11.545 7.65998 11.4694C7.60623 11.3938 7.56791 11.3084 7.54721 11.218C7.52651 11.1275 7.52384 11.0339 7.53935 10.9425L8.26515 6.59003C6.62201 6.15786 5.06866 5.43735 3.67745 4.46204L1.32008 8.58979C1.22649 8.75234 1.07216 8.87104 0.891038 8.91979C0.709922 8.96855 0.516856 8.94336 0.354313 8.84976C0.19177 8.75617 0.0730643 8.60184 0.0243106 8.42072C-0.0244431 8.2396 0.000748518 8.04654 0.0943433 7.88399L2.547 3.59274C1.67444 2.85646 0.874413 2.03831 0.157865 1.14949C0.0402477 1.0038 -0.014675 0.817345 0.00517944 0.631154C0.0250339 0.444964 0.118039 0.274286 0.263735 0.156668C0.409431 0.0390507 0.595883 -0.015872 0.782073 0.00398248C0.968264 0.0238369 1.13894 0.116842 1.25656 0.262538C3.24103 2.72107 6.71474 5.64896 12 5.64896C17.2853 5.64896 20.759 2.72107 22.7434 0.264891C22.8611 0.119196 23.0317 0.0261901 23.2179 0.00633564C23.4041 -0.0135188 23.5906 0.0414039 23.7363 0.159021C23.882 0.276639 23.975 0.447316 23.9948 0.633507C24.0147 0.819697 23.9598 1.00615 23.8421 1.15185C23.1256 2.04067 22.3256 2.85882 21.453 3.59509L23.9057 7.88399Z" fill="black" fill-opacity="0.3"/>
</svg>
