<svg width="18" height="18" viewBox="0 0 18 18" fill="none" xmlns="http://www.w3.org/2000/svg">
<path d="M11.4103 18.9643V10.585L17.4013 3.44705C17.4903 3.34123 17.5607 3.21535 17.6082 3.07679C17.6557 2.93823 17.6795 2.78978 17.6781 2.64015V1.58498C17.6781 1.42036 17.6231 1.26248 17.5251 1.14608C17.4272 1.02968 17.2943 0.964287 17.1558 0.964287H1.48619C1.34766 0.964287 1.2148 1.02968 1.11685 1.14608C1.0189 1.26248 0.963867 1.42036 0.963867 1.58498V2.62153C0.963965 2.76813 0.988476 2.91325 1.03599 3.04854C1.0835 3.18383 1.15307 3.30661 1.2407 3.4098L7.2317 10.6346V16.9657L11.4103 18.9643Z" fill="#9D9D9D"/>
</svg>
