<svg width="14" height="12" viewBox="0 0 14 12" fill="none" xmlns="http://www.w3.org/2000/svg">
<path d="M12.8533 2.20659H-3.92528C-4.1725 2.20659 -4.40959 2.10163 -4.5844 1.91481C-4.75921 1.72799 -4.85742 1.47461 -4.85742 1.21041C-4.85742 0.946207 -4.75921 0.692826 -4.5844 0.506007C-4.40959 0.319187 -4.1725 0.214233 -3.92528 0.214233H12.8533C13.1005 0.214233 13.3376 0.319187 13.5124 0.506007C13.6872 0.692826 13.7854 0.946207 13.7854 1.21041C13.7854 1.47461 13.6872 1.72799 13.5124 1.91481C13.3376 2.10163 13.1005 2.20659 12.8533 2.20659ZM9.74615 6.85541H-0.818136C-1.06536 6.85541 -1.30245 6.75046 -1.47726 6.56364C-1.65207 6.37682 -1.75028 6.12344 -1.75028 5.85923C-1.75028 5.59503 -1.65207 5.34165 -1.47726 5.15483C-1.30245 4.96801 -1.06536 4.86306 -0.818136 4.86306H9.74615C9.99337 4.86306 10.2305 4.96801 10.4053 5.15483C10.5801 5.34165 10.6783 5.59503 10.6783 5.85923C10.6783 6.12344 10.5801 6.37682 10.4053 6.56364C10.2305 6.75046 9.99337 6.85541 9.74615 6.85541ZM6.01758 11.5042H2.91044C2.66322 11.5042 2.42612 11.3993 2.25131 11.2125C2.0765 11.0256 1.97829 10.7723 1.97829 10.5081C1.97829 10.2439 2.0765 9.99047 2.25131 9.80365C2.42612 9.61683 2.66322 9.51188 2.91044 9.51188H6.01758C6.2648 9.51188 6.50189 9.61683 6.6767 9.80365C6.85151 9.99047 6.94972 10.2439 6.94972 10.5081C6.94972 10.7723 6.85151 11.0256 6.6767 11.2125C6.50189 11.3993 6.2648 11.5042 6.01758 11.5042Z" fill="#9D9D9D"/>
</svg>
